# xmcd
#
# Track frame offsets: 
#        150
#        12853
#        26873
#        41281
#        55533
#        83338
#        99491
#        115312
#        131131
#        158573
#        175447
#        194160
#        208542
#        224369
#        238251
#        254619
#        270500
#        287777
#        305079
#        320123
#        347893
#
# Disc length: 4770 seconds
#
# Revision: 0
# Processed by: cddbd v1.5.2PL0 Copyright (c) Steve Scherf et al.
# Submitted via: ExactAudioCopy v1.0b3
#
DISCID=3d12a015
DTITLE=Various Artist - Dance Max 2004.02 - CD 1
DYEAR=1900
DGENRE=
TTITLE0=LMC Vs. U2 - Take Me To The Clouds Above (Radio Edit)
TTITLE1=Special D. - Nothing I Won't Do (Single Edit)
TTITLE2=Westbam and Afrika Islam - Dancing With The Rebels (Short)
TTITLE3=Kate Ryan - Only If I (Radio Edit)
TTITLE4=Markus Gardeweg - 25 Years (Original Mix)
TTITLE5=Stacccato - Can't You See ? (Get Up) (Club Edit)
TTITLE6=DJ Tocadisco - Nobody (Likes The Record That I Play) (Nobody R
TTITLE6=adio Version)
TTITLE7=Pinball - Time (Vocal Edit)
TTITLE8=Oliver Moldan - Gonna Make You Sweat (Oliver Moldan Original M
TTITLE8=ix)
TTITLE9=Swen G. Feat. Billy William King - Your Love (Phillippe Thonet
TTITLE9='s Hypnotic Edit)
TTITLE10=DJ Errik - Fast Cars and Bitches (Original Radio Edit)
TTITLE11=Tonka Feat. Lara McAllen - Get Back (Radio Mix)
TTITLE12=Motorcycle - As The Rush Comes (Radio Edit)
TTITLE13=Lasgo - Surrender (Radio Edit)
TTITLE14=André Visior - Angels (Short Cut)
TTITLE15=Nightwatchers - Visions (Radio Edit)
TTITLE16=DJ Powerbeat Feat. DJ Arica - So Far Away
TTITLE17=Lichtenfels - Kill The Silence (Radio Edit)
TTITLE18=Novaspace - Beds Are Burning (Radio Edit)
TTITLE19=Mark 'Oh - Words (Video Version)
TTITLE20=Data-Track
EXTD=
EXTT0=
EXTT1=
EXTT2=
EXTT3=
EXTT4=
EXTT5=
EXTT6=
EXTT7=
EXTT8=
EXTT9=
EXTT10=
EXTT11=
EXTT12=
EXTT13=
EXTT14=
EXTT15=
EXTT16=
EXTT17=
EXTT18=
EXTT19=
EXTT20=
PLAYORDER=
